<svg xmlns="http://www.w3.org/2000/svg" viewBox="0 0 1095 79"><defs><style>.cls-1{fill:#333;}</style></defs><g id="Layer_2" data-name="Layer 2"><g id="Layer_1-2" data-name="Layer 1"><polygon class="cls-1" points="299.53 0 220.53 79 256.1 79 335.1 0 299.53 0"/><polygon class="cls-1" points="239.15 0 160.15 79 195.73 79 274.73 0 239.15 0"/><polygon class="cls-1" points="480.65 0 401.65 79 437.23 79 516.23 0 480.65 0"/><polygon class="cls-1" points="541.02 0 462.02 79 497.6 79 576.6 0 541.02 0"/><polygon class="cls-1" points="420.28 0 341.28 79 376.85 79 455.85 0 420.28 0"/><polygon class="cls-1" points="359.9 0 280.9 79 316.48 79 395.48 0 359.9 0"/><polygon class="cls-1" points="178.78 0 99.78 79 135.35 79 214.35 0 178.78 0"/><polygon class="cls-1" points="118.41 0 39.41 79 74.98 79 153.98 0 118.41 0"/><polygon class="cls-1" points="963.64 0 884.64 79 920.22 79 999.22 0 963.64 0"/><polygon class="cls-1" points="903.27 0 824.27 79 859.85 79 938.85 0 903.27 0"/><polygon class="cls-1" points="1024.02 0 945.02 79 980.6 79 1059.6 0 1024.02 0"/><polygon class="cls-1" points="601.4 0 522.4 79 557.98 79 636.98 0 601.4 0"/><polygon class="cls-1" points="722.15 0 643.15 79 678.72 79 757.72 0 722.15 0"/><polygon class="cls-1" points="661.77 0 582.77 79 618.35 79 697.35 0 661.77 0"/><polygon class="cls-1" points="842.9 0 763.9 79 799.47 79 878.47 0 842.9 0"/><polygon class="cls-1" points="782.52 0 703.52 79 739.1 79 818.1 0 782.52 0"/><polygon class="cls-1" points="0 0 0 33.23 33.23 0 0 0"/><polygon class="cls-1" points="1095 49.77 1065.77 79 1095 79 1095 49.77"/><polygon class="cls-1" points="58.03 0 0 58.03 0 79 14.61 79 93.61 0 58.03 0"/><polygon class="cls-1" points="1095 0 1084.39 0 1005.39 79 1040.97 79 1095 24.97 1095 0"/></g></g></svg>